<svg xmlns="http://www.w3.org/2000/svg" width="86" height="90" viewBox="0 0 86 90">
  <g id="Group_18842" data-name="Group 18842" transform="translate(-307.61 -324)">
    <rect id="Rectangle_10188" data-name="Rectangle 10188" width="90" height="62" transform="translate(369.61 324) rotate(90)" fill="#233759"/>
    <rect id="Rectangle_10189" data-name="Rectangle 10189" width="44" height="20" transform="translate(316.61 333)" fill="#98a5b9"/>
    <rect id="Rectangle_10190" data-name="Rectangle 10190" width="9" height="9" transform="translate(316.61 361)" fill="#98a5b9"/>
    <rect id="Rectangle_10195" data-name="Rectangle 10195" width="9" height="9" transform="translate(316.61 379)" fill="#98a5b9"/>
    <rect id="Rectangle_10198" data-name="Rectangle 10198" width="9" height="9" transform="translate(316.61 396)" fill="#98a5b9"/>
    <rect id="Rectangle_10191" data-name="Rectangle 10191" width="9" height="9" transform="translate(351.61 361)" fill="#98a5b9"/>
    <rect id="Rectangle_10193" data-name="Rectangle 10193" width="9" height="9" transform="translate(351.61 379)" fill="#98a5b9"/>
    <rect id="Rectangle_10196" data-name="Rectangle 10196" width="9" height="9" transform="translate(351.61 396)" fill="#98a5b9"/>
    <rect id="Rectangle_10192" data-name="Rectangle 10192" width="9" height="9" transform="translate(334.61 361)" fill="#98a5b9"/>
    <rect id="Rectangle_10194" data-name="Rectangle 10194" width="9" height="9" transform="translate(334.61 379)" fill="#98a5b9"/>
    <rect id="Rectangle_10197" data-name="Rectangle 10197" width="9" height="9" transform="translate(334.61 396)" fill="#98a5b9"/>
    <circle id="Ellipse_162" data-name="Ellipse 162" cx="25" cy="25" r="25" transform="translate(343.61 364)" fill="#f27d24"/>
    <circle id="Ellipse_161" data-name="Ellipse 161" cx="18" cy="18" r="18" transform="translate(350.61 371)" fill="#fbc8a1"/>
    <path id="Path_41964" data-name="Path 41964" d="M10.783-7.086a2.474,2.474,0,0,0-.615-1.764,5.575,5.575,0,0,0-2.088-1.21,24.638,24.638,0,0,1-2.541-1.1,8.1,8.1,0,0,1-1.832-1.257,5.051,5.051,0,0,1-1.189-1.669,5.6,5.6,0,0,1-.426-2.284,5.069,5.069,0,0,1,1.46-3.744,6.16,6.16,0,0,1,3.879-1.7v-2.893H9.593v2.933a5.645,5.645,0,0,1,3.744,1.994,6.569,6.569,0,0,1,1.352,4.292H10.783a3.73,3.73,0,0,0-.669-2.426,2.211,2.211,0,0,0-1.791-.8,2.278,2.278,0,0,0-1.717.629A2.393,2.393,0,0,0,6-16.358a2.286,2.286,0,0,0,.595,1.649A6.553,6.553,0,0,0,8.8-13.439a24.546,24.546,0,0,1,2.656,1.223,7.666,7.666,0,0,1,1.757,1.3,5.026,5.026,0,0,1,1.095,1.649,5.67,5.67,0,0,1,.378,2.156,5.046,5.046,0,0,1-1.433,3.731,6.284,6.284,0,0,1-3.947,1.69V1H7.16V-1.679A6.5,6.5,0,0,1,2.868-3.646a6.339,6.339,0,0,1-1.521-4.44H5.254a3.594,3.594,0,0,0,.764,2.467,2.786,2.786,0,0,0,2.2.858,2.683,2.683,0,0,0,1.879-.629A2.183,2.183,0,0,0,10.783-7.086Z" transform="translate(360.348 400.613)" fill="#f27d24"/>
  </g>
</svg>
