<svg xmlns="http://www.w3.org/2000/svg" width="61.119" height="90" viewBox="0 0 61.119 90">
  <g id="Group_18845" data-name="Group 18845" transform="translate(-215.848 -2678.561)">
    <path id="Intersection_1" data-name="Intersection 1" d="M0,79.816V5.433L5.467,0h55.5V79.816Z" transform="translate(215.985 2678.561)" fill="#233759"/>
    <path id="Path_41965" data-name="Path 41965" d="M2300,5726.358l5.464,5.356H2361.1v-10.783h-55.636Z" transform="translate(-2084.152 -2967.946)" fill="#98a5b9"/>
    <path id="Subtraction_7" data-name="Subtraction 7" d="M0,15.574v0L0,0H13.416V15.571L6.709,11.129,0,15.573Z" transform="translate(256.824 2752.987)" fill="#f27d24"/>
    <path id="Path_41967" data-name="Path 41967" d="M-245.5,2679l55.475,57.858V2679Z" transform="translate(466.997 -0.439)" fill="#98a5b9" opacity="0.4"/>
    <g id="Group_18844" data-name="Group 18844" transform="translate(231.416 2696.274)">
      <path id="Path_2098" data-name="Path 2098" d="M0,0,32.708.639,24.468,8.88,0,8.9Z" transform="translate(9.596 2.663) rotate(45)" fill="#98a5b9"/>
      <path id="Path_2099" data-name="Path 2099" d="M0,0,32.272.358,23.928,8.9H6.116Z" transform="translate(0 25.886)" fill="#f27d24"/>
      <path id="Path_2095" data-name="Path 2095" d="M6.212,0h26.55L30.14,8.9H0Z" transform="translate(3.236)" fill="#98a5b9"/>
    </g>
  </g>
</svg>
