<svg xmlns="http://www.w3.org/2000/svg" width="77.27" height="90" viewBox="0 0 77.27 90">
  <g id="Group_18866" data-name="Group 18866" transform="translate(-2915.872 -1756.558)">
    <path id="Path_42005" data-name="Path 42005" d="M3085.674,1912.431l11.833,5.588v-5.588Z" transform="translate(-117.055 -107.452)" fill="none"/>
    <g id="Group_18865" data-name="Group 18865" transform="translate(2930.803 1787.121)">
      <path id="Path_42006" data-name="Path 42006" d="M2963.936,1854.943v14.812a24.428,24.428,0,0,1,6.067-.761c.049,0,.1,0,.146,0a24.262,24.262,0,0,1,12.932,3.8h18.672Z" transform="translate(-2963.936 -1854.943)" fill="#6d819f"/>
      <path id="Path_42007" data-name="Path 42007" d="M3070.606,1930.418v.519h-23.955a24.386,24.386,0,0,1,2.708,4.68h21.247v6.107h-19.471a24.569,24.569,0,0,1-.509,9.848,24.231,24.231,0,0,1-2.587,6.213H3083.3v-21.374Z" transform="translate(-3020.956 -1906.972)" fill="#6d819f"/>
    </g>
    <path id="Path_42008" data-name="Path 42008" d="M3026.276,1775.641l-17.459-19.083h-44.881v30.562l37.817,17.858h11.833v5.588l12.69,5.992Z" transform="translate(-33.134)" fill="#98a5b9"/>
    <path id="Path_42009" data-name="Path 42009" d="M3108.414,1756.558h0l17.459,19.083v62.292h0v-62.292Z" transform="translate(-132.731)" fill="#142a47"/>
    <path id="Path_42010" data-name="Path 42010" d="M3056.071,1912.431h-30.5a24.515,24.515,0,0,1,6.55,6.107h23.955Z" transform="translate(-75.618 -107.452)" fill="#233759"/>
    <path id="Path_42011" data-name="Path 42011" d="M3076.617,1947.154H3055.37a24.219,24.219,0,0,1,1.775,6.107h19.471Z" transform="translate(-96.164 -131.389)" fill="#233759"/>
    <path id="Path_42012" data-name="Path 42012" d="M3125.873,1775.563h-17.459v-19Z" transform="translate(-132.731)" fill="#233759"/>
    <rect id="Rectangle_10246" data-name="Rectangle 10246" width="24.746" height="6.345" transform="translate(2943.81 1773.214)" fill="#f27d24"/>
    <rect id="Rectangle_10247" data-name="Rectangle 10247" width="36.642" height="6.107" transform="translate(2943.81 1794.192)" fill="#233759"/>
    <rect id="Rectangle_10248" data-name="Rectangle 10248" width="36.642" height="6.107" transform="translate(2943.81 1783.822)" fill="#233759"/>
    <path id="Path_42013" data-name="Path 42013" d="M2936.87,1911.09a21,21,0,1,0,21,21A21,21,0,0,0,2936.87,1911.09Zm0,36.67a15.672,15.672,0,1,1,15.672-15.672A15.672,15.672,0,0,1,2936.87,1947.76Z" transform="translate(0 -106.528)" fill="#fbad33"/>
    <path id="Path_42014" data-name="Path 42014" d="M2979.653,1954.6v-9.594H2975.7v13.549h11.337V1954.6Z" transform="translate(-41.241 -129.908)" fill="#f27d24"/>
  </g>
</svg>
