<?xml version="1.0" encoding="UTF-8"?>
<svg xmlns="http://www.w3.org/2000/svg" width="175" height="160" viewBox="0 0 175 160" fill="none">
  <g clip-path="url(#clip0_4058_7394)">
    <path d="M154.796 11.2402H33.7837V160H154.796V11.2402Z" fill="#5F6D83"></path>
    <path d="M63.3387 148.49H142.465V22.7251H46.1147V131.27L63.3387 148.49Z" fill="#98A5B9"></path>
    <path d="M63.3387 131.27H46.1147L63.3387 148.491V131.27Z" fill="#233759"></path>
    <path d="M103.868 37.7266H55.1079V47.5339H103.868V37.7266Z" fill="#F0840F"></path>
    <path d="M133.472 90.251H55.1079V99.0692H133.472V90.251Z" fill="#233759"></path>
    <path d="M133.472 112.97H81.5063V122.41H133.472V112.97Z" fill="#233759"></path>
    <path d="M126.035 64.7754V76.0262H62.5455V64.7754H126.035ZM133.472 57.8516H55.1079V82.9501H133.472V57.8516Z" fill="#233759"></path>
    <path d="M67.5226 109.995V116.647H60.8714V109.995H67.5226ZM73.2826 104.235H55.1079V122.41H73.2826V104.235Z" fill="#233759"></path>
    <path d="M118.81 4.80225H69.7695V25.7136H118.81V4.80225Z" fill="#233759"></path>
    <path d="M0.0027261 56.7806L55.689 112.467L64.3859 103.77L8.69968 48.0836L0.0027261 56.7806Z" fill="#FBAD33"></path>
    <path d="M8.69647 48.0809L-0.000488281 56.7778L8.69647 65.4748L17.3934 56.7778L8.69647 48.0809Z" fill="#F0840F"></path>
    <path d="M67.5674 115.647L55.6875 112.462L64.3834 103.767L67.5674 115.647Z" fill="#F0840F"></path>
    <path d="M103.173 0H85.4107C83.4803 0 81.9155 1.56482 81.9155 3.49513V6.10599C81.9155 8.0363 83.4803 9.60112 85.4107 9.60112H103.173C105.103 9.60112 106.668 8.0363 106.668 6.10599V3.49513C106.668 1.56482 105.103 0 103.173 0Z" fill="#233759"></path>
    <path d="M142.465 160C160.297 160 174.753 145.544 174.753 127.712C174.753 109.88 160.297 95.4238 142.465 95.4238C124.633 95.4238 110.177 109.88 110.177 127.712C110.177 145.544 124.633 160 142.465 160Z" fill="#FBAD33"></path>
    <path d="M134.468 134.611L125.608 125.751L120.295 131.039L133.842 144.586L162.925 115.503L158.263 110.841L134.468 134.611Z" fill="white"></path>
  </g>
  <defs>
    <clipPath id="clip0_4058_7394">
      <rect width="174.753" height="160" fill="white"></rect>
    </clipPath>
  </defs>
</svg>
