<svg xmlns="http://www.w3.org/2000/svg" xmlns:xlink="http://www.w3.org/1999/xlink" width="86.148" height="90" viewBox="0 0 86.148 90">
  <defs>
    <clipPath id="clip">
      <use xlink:href="#fill"/>
    </clipPath>
  </defs>
  <g id="Group_18976" data-name="Group 18976" transform="translate(-3959.309 -2535.165)">
    <path id="Path_42636" data-name="Path 42636" d="M4157.144,2553.174l-16.476-18.008h-42.353v27.358l58.829,34.72Z" transform="translate(-111.687 0)" fill="#98a5b9"/>
    <path id="Path_42637" data-name="Path 42637" d="M4098.314,2628.49v49.434h58.829v-14.713Z" transform="translate(-111.687 -65.967)" fill="#6d819f"/>
    <path id="Path_42638" data-name="Path 42638" d="M4259.268,2553.1h-16.476v-17.935Z" transform="translate(-213.812)" fill="#233759"/>
    <path id="Path_42639" data-name="Path 42639" d="M4065.612,2757.6v3.716a6.449,6.449,0,1,1-2.946.719,6.426,6.426,0,0,1,2.946-.719V2757.6m0,0a10.16,10.16,0,1,0,9.035,5.5,10.12,10.12,0,0,0-9.035-5.5Z" transform="translate(-68.486 -152.753)" fill="#fbad33"/>
    <g id="Rectangle_10386" data-name="Rectangle 10386" transform="matrix(0.889, -0.459, 0.459, 0.889, 3959.309, 2566.44)" fill="none" stroke="#233759" stroke-miterlimit="10" stroke-width="20">
      <rect id="fill" width="13.505" height="4.329" stroke="none"/>
      <path d="M0,-5.670886516571045h13.504836082458496M10,0v4.329113483428955M13.504836082458496,10h-13.504836082458496M3.504836082458496,4.329113483428955v-4.329113483428955" fill="none" clip-path="url(#clip)"/>
    </g>
    <path id="Path_42640" data-name="Path 42640" d="M4093.131,2680.8l26.908-13.887-5.917-11.467-32.9,16.979,2.845,5.512A12.3,12.3,0,0,1,4093.131,2680.8Z" transform="translate(-88.059 -75.144)" fill="#233759"/>
    <g id="Path_42641" data-name="Path 42641" transform="translate(-131.391 -125.282)" fill="none" stroke-miterlimit="10">
      <path d="M4160.325,2721.439l-22.068,11.389a12.171,12.171,0,0,1,1.985,3.847l22.068-11.39Z" stroke="none"/>
      <path d="M 4160.3251953125 2721.43896484375 L 4162.31005859375 2725.28564453125 L 4140.2421875 2736.67529296875 C 4140.03125 2735.9931640625 4139.7607421875 2735.3193359375 4139.421875 2734.66259765625 C 4139.0830078125 2734.005859375 4138.6904296875 2733.3955078125 4138.2568359375 2732.828125 L 4160.3251953125 2721.43896484375 Z" stroke="none" fill="#233759"/>
    </g>
    <g id="Path_42642" data-name="Path 42642" transform="translate(-6.785 -11.72)" fill="none" stroke-miterlimit="10">
      <path d="M4000.308,2615.008l-22.213-43.042-3.847,1.986,22.213,43.041a12.16,12.16,0,0,1,3.847-1.985Z" stroke="none"/>
      <path d="M 3996.461181640625 2616.992919921875 L 3974.248046875 2573.95166015625 L 3978.0947265625 2571.966064453125 L 4000.30810546875 2615.007568359375 C 3999.6259765625 2615.218505859375 3998.9521484375 2615.488525390625 3998.295654296875 2615.82763671875 C 3997.638916015625 2616.16650390625 3997.028564453125 2616.55908203125 3996.461181640625 2616.992919921875 Z" stroke="none" fill="#233759"/>
    </g>
    <g id="Group_18975" data-name="Group 18975" transform="translate(3972.884 2558.649)">
      <path id="Path_42643" data-name="Path 42643" d="M4076.161,2615.274l-24.729,12.762.421.816,27.971-6.48Z" transform="translate(-4038.31 -2603.272)" fill="#566f8f"/>
      <path id="Path_42644" data-name="Path 42644" d="M4053.187,2651.3l5.5,10.65,24.729-12.762-2.255-4.368Z" transform="translate(-4039.643 -2625.72)" fill="#233759"/>
    </g>
    <path id="Path_42645" data-name="Path 42645" d="M4187.478,2659.25l8.74-1.153-1.369-2.652Z" transform="translate(-168.786 -75.144)" fill="#566f8f"/>
    <rect id="Rectangle_10387" data-name="Rectangle 10387" width="3.95" height="6.698" transform="matrix(0.889, -0.459, 0.459, 0.889, 3997.205, 2577.63)" fill="#fbad33"/>
    <rect id="Rectangle_10388" data-name="Rectangle 10388" width="3.95" height="6.698" transform="matrix(0.889, -0.459, 0.459, 0.889, 4007.807, 2589.7)" fill="#f27d24"/>
    <path id="Path_42646" data-name="Path 42646" d="M4105.916,2656.669l3.97-.92.72,1.4-3.51,1.811Z" transform="translate(-106.819 -75.374)" fill="#f27d24"/>
    <g id="Ellipse_168" data-name="Ellipse 168" transform="translate(3989.842 2607.712)" fill="none" stroke="#fbad33" stroke-width="3">
      <ellipse cx="7.292" cy="7.292" rx="7.292" ry="7.292" stroke="none"/>
      <ellipse cx="7.292" cy="7.292" rx="5.792" ry="5.792" fill="none"/>
    </g>
  </g>
</svg>
